<?xml version="1.0" encoding="UTF-8"?>
<svg id="Layer_1" xmlns="http://www.w3.org/2000/svg" version="1.1" viewBox="0 0 112 112">
  <desc property="dc:creator">Martine Dowden (martine.dev)</desc>
  <metadata>
    <rdf:RDF xmlns:cc="http://web.resource.org/cc/"
             xmlns:rdf="http://www.w3.org/1999/02/22-rdf-syntax-ns#">
      <cc:work rdf:about="">
        <cc:license>
           <cc:prohibits rdf:resource="http://web.resource.org/cc/Reproduction"/>
           <cc:permits rdf:resource="http://web.resource.org/cc/Distribution"/>
           <cc:requires rdf:resource="http://web.resource.org/cc/Attribution"/>
           <cc:prohibits rdf:resource="http://web.resource.org/cc/CommercialUse"/>
        </cc:license>
      </cc:work>
    </rdf:RDF>
  </metadata>
  
  
  <defs>
    <style>
      .st0 {
        fill: #965981;
      }

      .st1 {
        fill: #ff931e;
      }

      .st2 {
        fill: gray;
      }

      .st3 {
        fill: #e0adcf;
      }

      .st4 {
        fill: #a5136d;
      }

      .st5 {
        fill: #7c0950;
      }

      .st6 {
        fill: #666;
      }

      .st7 {
        fill: #96085b;
      }

      .st8 {
        fill: none;
        stroke: #96085b;
        stroke-linecap: round;
        stroke-miterlimit: 10;
      }

      .st9 {
        fill: #720e4c;
      }

      .st10 {
        fill: #b3b3b3;
      }

      .st11 {
        fill: #ff7f00;
      }

      .st12 {
        fill: #ffa852;
      }

      .st13 {
        fill: #707d89;
      }
    </style>
  </defs>
  <ellipse class="st9" cx="6.878" cy="83.0151" rx="2.5191" ry="4.1985"/>
  <rect class="st10" x="11.0764" y="94.7708" width="10.916" height="10.916" rx="3.5" ry="3.5"/>
  <rect class="st10" x="76.5725" y="94.7708" width="10.916" height="10.916" rx="3.5" ry="3.5"/>
  <rect class="st2" x="23.6718" y="92.2517" width="8.3969" height="10.916" rx="3.5" ry="3.5"/>
  <rect class="st10" x="93.3663" y="85.5342" width="10.0763" height="10.916" rx="3.5" ry="3.5"/>
  <polygon class="st3" points="88.3282 102.3281 9.3971 102.3281 9.3971 66.2213 86.6488 67.061 88.3282 102.3281"/>
  <path class="st7" d="M9.3971,102.3281h-2.1965c-.6419,0-1.1623-.5204-1.1623-1.1623v-35.7842h3.3588v36.9465Z"/>
  <circle class="st7" cx="32.0688" cy="82.1754" r="4.1985"/>
  <circle class="st7" cx="63.9771" cy="83.0151" r="4.1985"/>
  <path class="st8" d="M42.9848,90.5724c0,4.6183,9.9349,4.6183,9.9349,0"/>
  <path class="st3" d="M105.0953,92.122l-16.7671,10.206,1.6794-36.1068,17.6336-22.6717v44.0424c0,1.8508-.9649,3.5678-2.5459,4.5301Z"/>
  <path class="st4" d="M86.6488,66.2213h3.3588v34.4567c0,.9107-.7394,1.6501-1.6501,1.6501h-.2847c-.7859,0-1.424-.6381-1.424-1.424v-34.6828h0Z"/>
  <polygon class="st0" points="88.9063 64.9617 1.42 64.9617 30.299 38.5114 110.1602 38.5114 88.9063 64.9617"/>
  <polygon class="st5" points="86.6488 56.9846 86.6488 61.1831 105.122 37.6717 105.122 35.1526 86.6488 56.9846"/>
  <polygon class="st7" points="86.6488 61.1831 48.0229 61.1831 48.0229 57.8243 86.6488 56.9846 86.6488 61.1831"/>
  <ellipse class="st13" cx="76.5725" cy="34.7328" rx="2.5191" ry="2.9389"/>
  <ellipse class="st13" cx="95.8854" cy="34.7328" rx="2.5191" ry="2.9389"/>
  <path class="st7" d="M91.3406,76.9498c-.4544,3.7624-.46,6.8646.3273,8.806.5718,1.41,2.2268,2.0293,3.6301,1.4413,5.3017-2.2216,12.5822-6.4832,12.5822-6.4832,0,0,5.7134-6.0638-2.9911-10.8552-.3534-.1945-.7809-.1968-1.1425-.0181-2.6499,1.3095-8.2267,3.7986-11.7678,6.0772-.3559.229-.5874.6118-.6381,1.0319Z"/>
  <polygon class="st3" points="86.6488 57.8243 48.0229 57.8243 68.1756 35.1526 105.122 35.1526 86.6488 57.8243"/>
  <line class="st8" x1="72.374" y1="39.3511" x2="61.458" y2="52.7862"/>
  <line class="st8" x1="82.4503" y1="39.3511" x2="72.374" y2="51.9465"/>
  <polygon class="st6" points="42.5649 60.7633 9.8169 60.7633 36.2672 41.0305 61.458 40.1908 42.5649 60.7633"/>
  <line class="st8" x1="91.687" y1="39.3511" x2="82.4503" y2="51.9465"/>
  <path class="st1" d="M9.8169,61.1831c1.7881,2.3323,31.7183.8397,32.4431,0s-5.4624-10.3857-9.5062-11.0707-9.0819,2.6738-9.0819,2.6738l-2.7659-2.7659s18.7201-35.0203-6.4707-24.944c4.7499.8636,4.1985,5.0382,2.5191,6.7175-7.609,7.609,2.0633,13.843.8397,13.4351-2.5191-.8397-5.0382-10.916-5.0382-10.916,0,0-12.5954,14.2748-2.9389,26.8702Z"/>
  <path class="st11" d="M24.2461,55.8798c-1.414-2.2539-20.6682-10.668.2654-28.2844,4.4639-3.7565,4.1985-7.5572-.8397-12.5954,15.9542,0,21.832,10.0763,21.832,10.0763l-3.2439,36.1068-18.0139-5.3033Z"/>
  <path class="st12" d="M44.6642,33.4732c1.5647.3482.8787-6.7945.8397-8.3969-.0724-2.9696,5.8779-10.916,14.2748-7.5572-9.2366,0-3.7786,13.5669-3.7786,13.5669l5.458,9.9445s-19.7328,20.8292-19.3129,20.1526c.2345-.3779-18.7311-18.33-10.916-22.6717,7.5572-4.1985-3.3588-10.0763-8.3969-11.7557,14.2748-6.7175,23.5114,1.6794,21.832,6.7175Z"/>
  <path class="st1" d="M27.8703,59.5037c-16.7939-23.5114,10.916-34.4274,20.1526-28.5496-17.6336,3.3588,0,23.5114,0,23.5114l-5.8779,6.7175-14.2748-1.6794Z"/>
  <path class="st1" d="M61.9602,40.3013c2.0169-12.7059-17.2961-21.1028-21.4945-17.744,12.3111,3.3588.7457,16.7946.8397,22.6717.1326,8.2864,7.5572,9.2366,7.5572,9.2366l13.0976-14.1643Z"/>
  <path class="st7" d="M89.7886,67.4898l-87.5474-.4289c-.6954-.0098-1.2509-.5822-1.2411-1.2776.0103-.6896.572-1.2415,1.2591-1.2415h.0189l86.269.4108,20.1871-26.7796c.4182-.5556,1.2087-.6675,1.7647-.2476.5551.4186.6659,1.2083.2476,1.7638l-20.9579,27.8005Z"/>
</svg>