<svg xmlns="http://www.w3.org/2000/svg" xmlns:xlink="http://www.w3.org/1999/xlink" width="500" zoomAndPan="magnify" viewBox="0 0 375 374.999991" height="500" preserveAspectRatio="xMidYMid meet" version="1.0"><defs><g/><clipPath id="307bbf8b29"><path d="M 8 43.472656 L 363 43.472656 L 363 331.472656 L 8 331.472656 Z M 8 43.472656 " clip-rule="nonzero"/></clipPath></defs><rect x="-37.5" width="450" fill="none" y="-37.499999" height="449.999989" fill-opacity="1"/><rect x="-37.5" width="450" fill="none" y="-37.499999" height="449.999989" fill-opacity="1"/><g clip-path="url(#307bbf8b29)"><path fill="#b1d4ff" d="M 94.027344 331.519531 C 58.109375 314.183594 16.003906 267.113281 9.8125 225.011719 C 1.140625 165.5625 25.910156 112.308594 74.210938 76.398438 C 141.085938 25.617188 288.46875 33.050781 339.25 102.402344 C 393.742188 175.472656 347.914062 280.742188 257.507812 290.652344 C 198.0625 296.84375 164.210938 306.441406 72.960938 269.710938 C 72.960938 269.710938 76.277344 309.539062 94.03125 331.523438 " fill-opacity="1" fill-rule="nonzero"/></g><path fill="#b1d4ff" d="M 84.484375 282.632812 C 84.484375 282.632812 84.78125 282.800781 85.359375 283.097656 C 85.925781 283.40625 86.792969 283.800781 87.855469 284.347656 C 88.949219 284.847656 90.265625 285.484375 91.800781 286.140625 C 93.316406 286.84375 95.074219 287.53125 96.960938 288.328125 C 97.914062 288.71875 98.917969 289.074219 99.953125 289.472656 C 100.988281 289.867188 102.035156 290.300781 103.152344 290.671875 C 104.261719 291.0625 105.398438 291.460938 106.558594 291.867188 C 107.734375 292.253906 108.929688 292.636719 110.148438 293.027344 C 112.566406 293.871094 115.128906 294.507812 117.699219 295.289062 C 118.980469 295.6875 120.300781 295.992188 121.617188 296.324219 C 122.941406 296.65625 124.261719 296.988281 125.585938 297.320312 C 128.246094 297.921875 130.914062 298.496094 133.535156 299.066406 C 136.1875 299.5 138.78125 300.027344 141.300781 300.484375 C 143.84375 300.832031 146.289062 301.207031 148.617188 301.5625 C 149.777344 301.761719 150.914062 301.867188 152.015625 301.992188 C 153.117188 302.117188 154.179688 302.242188 155.199219 302.359375 C 157.242188 302.574219 159.109375 302.871094 160.78125 302.972656 C 162.449219 303.101562 163.90625 303.242188 165.109375 303.351562 C 167.503906 303.574219 168.886719 303.734375 168.886719 303.734375 C 168.886719 303.734375 167.511719 303.832031 165.09375 303.933594 C 163.890625 303.988281 162.421875 304.054688 160.734375 304.097656 C 159.050781 304.195312 157.152344 304.113281 155.082031 304.054688 C 153.015625 303.972656 150.753906 303.992188 148.386719 303.757812 C 146.015625 303.542969 143.511719 303.34375 140.933594 303.054688 C 138.367188 302.671875 135.699219 302.316406 133.011719 301.867188 C 130.335938 301.328125 127.609375 300.78125 124.90625 300.195312 C 123.558594 299.839844 122.222656 299.488281 120.886719 299.132812 C 119.546875 298.777344 118.210938 298.453125 116.910156 298.023438 C 114.292969 297.226562 111.738281 296.414062 109.308594 295.488281 C 108.085938 295.03125 106.875 294.632812 105.722656 294.144531 C 104.5625 293.65625 103.441406 293.175781 102.339844 292.710938 C 101.238281 292.265625 100.1875 291.773438 99.175781 291.285156 C 98.171875 290.789062 97.179688 290.347656 96.265625 289.867188 C 94.417969 288.914062 92.734375 288.019531 91.285156 287.148438 C 89.8125 286.328125 88.59375 285.5 87.566406 284.847656 C 85.558594 283.503906 84.484375 282.632812 84.484375 282.632812 " fill-opacity="1" fill-rule="nonzero"/><path fill="#b1d4ff" d="M 300.347656 57.027344 C 300.347656 57.027344 300.738281 57.121094 301.457031 57.328125 C 302.179688 57.539062 303.238281 57.84375 304.558594 58.320312 C 307.203125 59.242188 310.929688 60.738281 315.222656 62.925781 C 317.359375 64.039062 319.671875 65.265625 322.011719 66.734375 C 323.203125 67.441406 324.378906 68.238281 325.605469 69.019531 C 326.808594 69.832031 328.027344 70.683594 329.238281 71.585938 C 330.453125 72.488281 331.683594 73.40625 332.890625 74.394531 C 333.488281 74.886719 334.117188 75.359375 334.707031 75.875 C 335.296875 76.390625 335.898438 76.910156 336.496094 77.433594 C 337.699219 78.472656 338.832031 79.605469 340.011719 80.691406 C 341.144531 81.839844 342.304688 82.964844 343.40625 84.148438 C 344.476562 85.355469 345.59375 86.519531 346.605469 87.777344 C 347.632812 89.011719 348.664062 90.238281 349.613281 91.515625 C 350.09375 92.148438 350.574219 92.777344 351.050781 93.402344 C 351.496094 94.050781 351.9375 94.695312 352.382812 95.335938 C 352.824219 95.980469 353.261719 96.621094 353.699219 97.253906 C 354.097656 97.90625 354.503906 98.554688 354.902344 99.195312 C 355.300781 99.835938 355.699219 100.476562 356.09375 101.105469 C 356.460938 101.75 356.816406 102.394531 357.164062 103.03125 C 357.867188 104.304688 358.550781 105.554688 359.144531 106.808594 C 359.445312 107.429688 359.75 108.042969 360.046875 108.644531 C 360.347656 109.246094 360.636719 109.839844 360.871094 110.445312 C 361.382812 111.644531 361.871094 112.800781 362.335938 113.914062 C 362.78125 115.035156 363.164062 116.121094 363.539062 117.15625 C 363.910156 118.191406 364.265625 119.167969 364.523438 120.105469 C 365.078125 121.984375 365.609375 123.601562 365.914062 124.96875 C 366.5625 127.695312 366.894531 129.253906 366.894531 129.253906 C 366.894531 129.253906 366.3125 127.761719 365.351562 125.152344 C 365.121094 124.488281 364.832031 123.777344 364.5 123.007812 C 364.183594 122.234375 363.835938 121.398438 363.464844 120.503906 C 363.121094 119.597656 362.675781 118.671875 362.210938 117.691406 C 361.746094 116.710938 361.300781 115.664062 360.785156 114.597656 C 359.699219 112.484375 358.550781 110.191406 357.191406 107.84375 C 356.558594 106.648438 355.820312 105.46875 355.066406 104.265625 C 354.6875 103.660156 354.320312 103.050781 353.933594 102.429688 C 353.535156 101.828125 353.128906 101.21875 352.714844 100.609375 C 352.308594 99.992188 351.894531 99.375 351.472656 98.753906 C 351.03125 98.148438 350.585938 97.542969 350.136719 96.933594 C 349.6875 96.320312 349.234375 95.707031 348.785156 95.089844 C 348.3125 94.484375 347.839844 93.878906 347.359375 93.269531 C 346.425781 92.035156 345.40625 90.851562 344.394531 89.664062 C 343.398438 88.449219 342.296875 87.332031 341.246094 86.160156 C 340.183594 85 339.066406 83.894531 337.980469 82.765625 C 336.84375 81.691406 335.75 80.578125 334.589844 79.550781 C 332.292969 77.472656 329.992188 75.472656 327.664062 73.648438 C 325.339844 71.835938 323.054688 70.109375 320.816406 68.578125 C 318.585938 67.03125 316.417969 65.65625 314.402344 64.402344 C 312.363281 63.1875 310.476562 62.082031 308.777344 61.164062 C 307.078125 60.25 305.585938 59.464844 304.332031 58.859375 C 303.082031 58.25 302.089844 57.78125 301.40625 57.480469 C 300.726562 57.175781 300.347656 57.027344 300.347656 57.027344 " fill-opacity="1" fill-rule="nonzero"/><path fill="none" d="M 58.511719 104.09375 C 58.511719 104.09375 58.644531 103.871094 58.917969 103.460938 C 59.1875 103.050781 59.582031 102.445312 60.121094 101.703125 C 60.644531 100.945312 61.320312 100.0625 62.101562 99.046875 C 62.90625 98.058594 63.78125 96.90625 64.832031 95.730469 C 65.347656 95.140625 65.886719 94.519531 66.445312 93.878906 C 67.011719 93.242188 67.628906 92.621094 68.246094 91.964844 C 69.476562 90.640625 70.835938 89.308594 72.269531 87.949219 C 72.96875 87.257812 73.734375 86.609375 74.484375 85.925781 C 75.246094 85.25 76 84.554688 76.804688 83.894531 C 77.609375 83.246094 78.425781 82.59375 79.246094 81.9375 C 80.058594 81.277344 80.878906 80.613281 81.738281 80.003906 C 83.460938 78.789062 85.152344 77.527344 86.925781 76.4375 C 87.796875 75.871094 88.667969 75.324219 89.53125 74.796875 C 90.40625 74.257812 91.304688 73.808594 92.171875 73.324219 C 93.035156 72.851562 93.886719 72.371094 94.726562 71.933594 C 95.570312 71.496094 96.441406 71.144531 97.261719 70.761719 C 98.917969 70.019531 100.453125 69.273438 101.96875 68.796875 C 103.460938 68.253906 104.828125 67.792969 106.039062 67.386719 C 107.273438 67.039062 108.375 66.804688 109.261719 66.582031 C 111.050781 66.160156 112.078125 65.953125 112.078125 65.953125 C 112.078125 65.953125 111.117188 66.40625 109.445312 67.140625 C 108.621094 67.5 107.605469 67.941406 106.445312 68.445312 C 105.316406 69.023438 104.046875 69.671875 102.65625 70.34375 C 101.246094 70.984375 99.820312 71.890625 98.265625 72.726562 C 97.492188 73.167969 96.6875 73.574219 95.894531 74.070312 C 95.121094 74.578125 94.300781 75.0625 93.480469 75.570312 C 92.667969 76.085938 91.808594 76.5625 90.996094 77.128906 C 90.175781 77.699219 89.347656 78.261719 88.5 78.820312 C 86.792969 79.90625 85.167969 81.171875 83.496094 82.378906 C 82.644531 82.960938 81.835938 83.59375 81.027344 84.226562 C 80.21875 84.855469 79.410156 85.480469 78.605469 86.105469 C 77.054688 87.410156 75.464844 88.621094 73.996094 89.886719 C 72.546875 91.167969 71.082031 92.34375 69.773438 93.546875 C 68.441406 94.722656 67.191406 95.851562 66.046875 96.90625 C 64.894531 97.953125 63.871094 98.945312 62.933594 99.804688 C 62.035156 100.695312 61.207031 101.4375 60.5625 102.082031 C 59.257812 103.367188 58.511719 104.09375 58.511719 104.09375 " fill-opacity="1" fill-rule="nonzero"/><g fill="#2e3844" fill-opacity="1"><g transform="translate(200.639655, 261.009515)"><g><path d="M 40.488281 0 C 47.492188 0 62.015625 0 70.042969 -8.882812 C 74.65625 -14.007812 80.464844 -23.234375 80.464844 -37.925781 C 80.464844 -59.28125 71.238281 -67.652344 64.746094 -71.238281 C 70.386719 -74.65625 76.878906 -81.832031 76.878906 -99.941406 C 76.878906 -111.386719 74.316406 -119.757812 68.507812 -126.589844 C 60.648438 -136.671875 51.421875 -136.671875 36.21875 -136.671875 L 2.390625 -136.671875 C 1.023438 -136.671875 0 -135.476562 0 -134.109375 L 0 -113.09375 C 0 -111.730469 1.023438 -110.703125 2.390625 -110.703125 L 36.21875 -110.703125 C 43.734375 -110.703125 47.324219 -105.921875 47.324219 -96.351562 C 47.324219 -89.859375 46.46875 -83.371094 36.21875 -83.371094 L 23.40625 -83.371094 C 19.816406 -83.371094 16.058594 -80.808594 16.058594 -76.023438 L 16.058594 -63.382812 C 16.058594 -59.28125 19.304688 -56.035156 23.40625 -56.035156 L 35.875 -56.035156 C 43.050781 -56.035156 45.101562 -55.523438 47.152344 -51.933594 C 48.347656 -49.886719 49.542969 -46.640625 49.542969 -42.195312 C 49.542969 -29.382812 45.101562 -26.652344 36.902344 -26.652344 L 18.449219 -26.652344 C 17.082031 -26.652344 16.058594 -25.625 16.058594 -24.257812 C 16.058594 -22.890625 17.082031 -21.867188 18.449219 -21.867188 L 36.902344 -21.867188 C 49.203125 -21.867188 54.496094 -28.015625 54.496094 -42.195312 C 54.496094 -47.835938 52.960938 -51.765625 51.59375 -54.328125 C 48.175781 -60.476562 43.222656 -60.820312 35.875 -60.820312 L 23.40625 -60.820312 C 22.039062 -60.820312 21.011719 -62.015625 21.011719 -63.382812 L 21.011719 -76.023438 C 21.011719 -78.242188 22.722656 -78.585938 23.40625 -78.585938 L 36.21875 -78.585938 C 52.277344 -78.585938 52.277344 -91.570312 52.277344 -96.351562 C 52.277344 -108.484375 46.46875 -115.488281 36.21875 -115.488281 L 4.785156 -115.488281 L 4.785156 -131.714844 L 36.21875 -131.714844 C 50.910156 -131.714844 58.085938 -131.714844 64.746094 -123.515625 C 67.652344 -119.757812 71.921875 -113.265625 71.921875 -99.941406 C 71.921875 -79.609375 63.210938 -75.679688 58.085938 -73.289062 C 57.058594 -72.949219 56.71875 -71.921875 56.71875 -71.070312 C 56.71875 -70.042969 57.402344 -69.019531 58.257812 -68.847656 C 62.867188 -66.96875 75.511719 -62.183594 75.511719 -37.925781 C 75.511719 -24.601562 70.554688 -16.742188 66.457031 -12.300781 C 59.792969 -4.785156 46.808594 -4.785156 40.488281 -4.785156 L 4.785156 -4.785156 L 4.785156 -97.035156 C 4.785156 -98.402344 3.757812 -99.597656 2.390625 -99.597656 C 1.023438 -99.597656 0 -98.402344 0 -97.035156 L 0 -2.390625 C 0 -1.023438 1.023438 0 2.390625 0 Z M 40.488281 0 "/></g></g></g><g fill="#2e3844" fill-opacity="1"><g transform="translate(103.388984, 214.935923)"><g><path d="M 99.769531 -136.671875 L 90.375 -136.671875 C 82.34375 -136.671875 80.125 -136.671875 76.363281 -130.519531 C 74.484375 -127.445312 62.527344 -107.457031 62.015625 -106.601562 C 61.332031 -105.578125 61.671875 -104.039062 62.867188 -103.359375 C 63.894531 -102.675781 65.429688 -103.1875 66.113281 -104.210938 C 66.285156 -104.382812 78.585938 -125.054688 80.464844 -127.957031 C 82.6875 -131.886719 82.6875 -131.714844 90.203125 -131.714844 L 97.378906 -131.714844 L 97.378906 -4.785156 L 76.878906 -4.785156 C 76.878906 -4.785156 76.707031 -49.03125 76.707031 -49.03125 C 76.707031 -49.03125 76.878906 -51.933594 76.878906 -51.933594 C 76.878906 -61.84375 76.878906 -67.824219 71.070312 -75 L 27.847656 -128.128906 C 27.335938 -128.640625 26.652344 -129.152344 26.308594 -129.835938 C 23.40625 -133.253906 21.011719 -136.671875 12.300781 -136.671875 L 2.390625 -136.671875 C 1.023438 -136.671875 0 -135.476562 0 -134.109375 L 0 -2.390625 C 0 -1.023438 1.023438 0 2.390625 0 L 26.652344 0 C 28.015625 0 29.042969 -1.023438 29.042969 -2.390625 L 29.042969 -80.464844 L 46.640625 -58.597656 C 47.492188 -57.402344 49.03125 -57.402344 50.054688 -58.257812 C 51.25 -59.109375 51.25 -60.648438 50.566406 -61.671875 L 28.53125 -88.835938 C 28.359375 -89.179688 28.015625 -89.347656 27.675781 -89.519531 C 27.335938 -89.519531 26.992188 -89.691406 26.652344 -89.691406 C 26.652344 -89.691406 26.136719 -89.519531 25.96875 -89.519531 C 25.796875 -89.519531 25.285156 -89.347656 25.113281 -89.007812 C 24.773438 -88.835938 24.601562 -88.664062 24.429688 -88.324219 C 24.257812 -88.152344 24.257812 -87.640625 24.257812 -87.46875 L 24.257812 -4.785156 L 4.785156 -4.785156 L 4.785156 -131.714844 L 12.300781 -131.714844 C 18.621094 -131.714844 20.160156 -129.835938 22.550781 -126.761719 C 23.234375 -126.078125 23.574219 -125.394531 24.089844 -124.882812 L 67.140625 -71.753906 C 72.09375 -66.113281 71.921875 -61.5 71.921875 -51.933594 L 71.921875 -2.390625 C 71.921875 -1.023438 73.117188 0 74.484375 0 L 99.769531 0 C 101.136719 0 102.332031 -1.023438 102.332031 -2.390625 L 102.332031 -134.109375 C 102.332031 -135.476562 101.136719 -136.671875 99.769531 -136.671875 Z M 99.769531 -136.671875 "/></g></g></g></svg>