<?xml version="1.0" standalone="no"?>
<!DOCTYPE svg PUBLIC "-//W3C//DTD SVG 20010904//EN"
 "http://www.w3.org/TR/2001/REC-SVG-20010904/DTD/svg10.dtd">
<svg version="1.0" xmlns="http://www.w3.org/2000/svg"
 width="300.000000pt" height="77.000000pt" viewBox="0 0 300.000000 77.000000"
 preserveAspectRatio="xMidYMid meet">
<metadata>
Created by potrace 1.10, written by Peter Selinger 2001-2011
</metadata>
<g transform="translate(0.000000,77.000000) scale(0.100000,-0.100000)"
fill="#008000" stroke="none">
<path d="M259 428 c-139 -187 -255 -344 -256 -347 -2 -3 231 -6 517 -6 286 0
520 2 520 4 0 3 -8 14 -19 25 -10 12 -125 163 -256 336 -131 173 -241 318
-244 323 -4 4 -122 -147 -262 -335z m486 -18 l226 -300 -455 0 -454 0 225 300
c124 165 227 300 228 300 2 0 105 -135 230 -300z"/>
<path d="M316 388 c-82 -112 -152 -213 -154 -225 -4 -21 0 -23 33 -23 37 0 38
1 21 19 -17 19 -14 25 90 163 140 187 133 181 127 122 -4 -48 -4 -49 14 -28
10 11 26 31 35 45 16 23 17 18 17 -134 1 -131 -2 -159 -14 -163 -26 -11 -16
-25 15 -22 l31 3 2 223 c1 122 1 222 1 222 -1 0 -16 -22 -34 -50 -18 -27 -34
-50 -36 -50 -1 0 0 23 3 50 3 28 4 50 2 50 -2 0 -71 -91 -153 -202z"/>
<path d="M567 367 l3 -222 37 -3 38 -2 -22 19 c-20 17 -23 29 -23 100 l0 81
55 0 54 0 61 -82 c56 -77 59 -83 43 -100 -15 -17 -14 -18 20 -18 29 0 37 4 37
18 0 12 -271 396 -302 427 -1 2 -2 -96 -1 -218z m81 57 c18 -23 32 -45 32 -48
0 -3 -18 -6 -40 -6 l-40 0 0 57 c0 31 4 53 8 48 5 -6 23 -29 40 -51z"/>
<path d="M1754 665 c-4 -9 -2 -21 4 -27 16 -16 47 -5 47 17 0 26 -42 34 -51
10z"/>
<path d="M1852 658 c4 -30 43 -33 43 -3 0 13 -8 21 -23 23 -20 3 -23 0 -20
-20z"/>
<path d="M1154 661 c-2 -2 -4 -51 -4 -108 l0 -103 28 0 c26 0 27 2 24 44 -2
23 -2 54 0 67 3 20 7 16 27 -29 13 -29 32 -57 42 -63 16 -8 23 -1 48 53 l29
63 1 -67 c1 -66 2 -68 26 -68 l25 0 0 108 0 108 -34 0 c-32 0 -36 -4 -61 -60
l-27 -61 -29 59 c-25 53 -31 59 -59 60 -18 1 -34 -1 -36 -3z"/>
<path d="M1472 609 c-37 -14 -21 -34 25 -31 30 3 42 -1 46 -12 5 -13 -1 -16
-29 -16 -51 0 -74 -15 -74 -50 0 -43 67 -69 98 -38 9 9 12 9 12 0 0 -7 9 -12
20 -12 18 0 20 7 20 65 0 52 -4 69 -20 85 -21 21 -60 25 -98 9z m72 -103 c-8
-21 -34 -28 -50 -15 -20 16 -8 29 26 29 21 0 28 -4 24 -14z"/>
<path d="M1630 535 c0 -84 0 -85 25 -85 22 0 24 4 27 58 3 50 6 57 26 60 16 3
22 10 22 28 0 27 -3 28 -31 14 -13 -7 -19 -7 -19 0 0 5 -11 10 -25 10 -25 0
-25 -1 -25 -85z"/>
<path d="M1758 533 c-3 -80 -2 -83 20 -83 21 0 22 4 22 83 0 75 -2 83 -19 83
-18 0 -20 -9 -23 -83z"/>
<path d="M1850 523 c0 -84 -2 -93 -19 -93 -10 0 -24 -6 -30 -14 -10 -12 -8
-17 8 -25 29 -16 49 -13 71 9 17 17 20 33 20 118 0 97 0 97 -25 97 -25 0 -25
0 -25 -92z"/>
<path d="M1940 559 c0 -33 5 -69 11 -80 15 -30 50 -40 77 -23 12 8 22 10 22 4
0 -5 11 -10 25 -10 25 0 25 1 25 85 0 84 0 85 -25 85 -24 0 -25 -3 -25 -60 0
-46 -4 -61 -17 -68 -34 -17 -43 -3 -43 64 0 62 -1 64 -25 64 -24 0 -25 -3 -25
-61z"/>
<path d="M2162 609 c-37 -14 -21 -34 28 -34 26 0 45 -5 47 -12 3 -9 -8 -13
-35 -13 -44 0 -72 -20 -72 -50 0 -41 68 -68 98 -38 9 9 12 9 12 0 0 -7 9 -12
20 -12 18 0 20 7 20 69 0 61 -3 72 -22 85 -25 18 -61 20 -96 5z m78 -98 c0
-15 -29 -33 -45 -27 -28 10 -17 36 15 36 17 0 30 -4 30 -9z"/>
<path d="M2320 535 c0 -84 0 -85 25 -85 23 0 24 4 27 63 3 59 4 62 28 62 24 0
25 -3 28 -62 3 -59 4 -63 27 -63 24 0 25 3 25 65 0 52 -4 69 -20 85 -22 22
-42 25 -71 10 -13 -7 -19 -7 -19 0 0 5 -11 10 -25 10 -25 0 -25 -1 -25 -85z"/>
<path d="M2548 607 c-38 -16 -23 -35 26 -33 23 0 41 -4 43 -11 3 -9 -8 -13
-36 -13 -32 0 -44 -5 -57 -25 -15 -23 -15 -27 0 -50 15 -23 35 -31 61 -25 6 1
27 2 48 1 l37 -1 0 64 c0 58 -3 67 -26 85 -30 24 -56 26 -96 8z m70 -99 c-7
-21 -36 -34 -49 -21 -6 6 -8 16 -5 22 10 15 59 14 54 -1z"/>
<path d="M1211 268 c-5 -13 -25 -58 -45 -102 -20 -43 -36 -82 -36 -87 0 -5 11
-9 25 -9 18 0 26 7 31 25 6 22 11 25 55 25 43 0 51 -3 61 -25 7 -16 19 -25 35
-25 12 0 23 2 23 4 0 2 -20 51 -44 108 -39 89 -48 103 -70 106 -20 3 -28 -2
-35 -20z m53 -85 c6 -20 4 -23 -18 -23 -29 0 -31 7 -14 45 12 27 19 23 32 -22z"/>
<path d="M1461 241 c-8 -5 -28 -7 -45 -4 l-31 5 3 -86 c3 -77 5 -86 23 -86 17
0 19 7 19 59 0 66 18 93 48 74 13 -8 17 -25 17 -69 0 -53 2 -59 23 -62 21 -3
22 0 22 65 0 74 -4 84 -37 102 -26 13 -24 13 -42 2z"/>
<path d="M1624 236 c-54 -24 -68 -101 -24 -141 9 -9 34 -18 53 -22 31 -5 40
-1 67 25 49 49 37 112 -25 138 -40 16 -33 16 -71 0z m57 -36 c23 -13 26 -62 4
-80 -12 -10 -21 -10 -40 -2 -29 13 -34 52 -9 76 18 19 20 19 45 6z"/>
<path d="M1861 241 c-8 -5 -29 -7 -48 -4 l-33 6 0 -87 c0 -85 0 -86 25 -86 24
0 25 3 25 59 0 61 16 89 45 77 11 -4 15 -22 15 -71 0 -63 1 -65 25 -65 24 0
25 2 25 69 0 63 -2 71 -26 90 -30 24 -33 24 -53 12z"/>
<path d="M2229 239 c-7 -4 -26 -5 -41 -2 l-28 6 0 -87 c0 -85 1 -87 23 -84 20
3 22 8 22 61 0 40 4 61 15 67 27 17 35 4 38 -63 3 -64 4 -67 27 -67 24 0 25 3
25 60 0 50 3 61 21 71 32 17 42 -2 40 -71 -2 -58 -1 -60 24 -60 24 0 25 2 25
69 0 50 -4 74 -16 85 -24 24 -68 24 -95 0 -14 -13 -17 -13 -22 -1 -7 18 -40
27 -58 16z"/>
<path d="M2525 242 c-35 -7 -65 -43 -65 -78 0 -46 9 -63 41 -79 40 -21 63 -19
98 11 69 57 15 163 -74 146z m55 -64 c14 -26 13 -29 -6 -49 -43 -43 -99 17
-58 62 23 25 44 21 64 -13z"/>
<path d="M2892 234 c-24 -9 -32 -20 -32 -37 0 -28 13 -40 53 -53 15 -5 27 -13
27 -19 1 -14 -39 -19 -54 -6 -10 8 -17 7 -27 -5 -15 -19 -2 -30 47 -40 40 -7
72 9 80 42 8 30 -5 45 -48 60 -18 6 -34 16 -36 22 -5 15 40 16 55 1 8 -8 14
-5 22 10 7 12 10 21 9 21 -2 0 -17 4 -34 9 -21 6 -41 4 -62 -5z"/>
<path d="M1986 158 c37 -87 38 -109 2 -105 -33 3 -37 -30 -4 -39 41 -10 64 14
101 105 51 124 50 121 21 121 -20 0 -27 -8 -41 -50 -9 -28 -20 -48 -24 -45 -5
2 -14 25 -21 50 -11 40 -16 45 -40 45 l-28 0 34 -82z"/>
<path d="M2661 193 c1 -69 11 -96 42 -113 22 -12 31 -13 46 -3 13 8 22 9 26 3
3 -6 15 -10 26 -10 17 0 19 8 19 85 0 84 0 85 -25 85 -24 0 -25 -3 -25 -59 0
-61 -12 -77 -45 -65 -11 5 -15 22 -15 65 0 56 -1 59 -25 59 -23 0 -25 -3 -24
-47z"/>
</g>
</svg>
